<?xml version="1.0" encoding="utf-8"?>
<!-- Generator: Adobe Illustrator 16.0.1, SVG Export Plug-In . SVG Version: 6.00 Build 0)  -->
<!DOCTYPE svg PUBLIC "-//W3C//DTD SVG 1.1//EN" "http://www.w3.org/Graphics/SVG/1.1/DTD/svg11.dtd">
<svg version="1.1" id="Layer_1" xmlns="http://www.w3.org/2000/svg" xmlns:xlink="http://www.w3.org/1999/xlink" x="0px" y="0px"
	 width="287.708px" height="233.878px" viewBox="0 0 287.708 233.878" enable-background="new 0 0 287.708 233.878"
	 xml:space="preserve">
<path fill="#010101" d="M248.829,45.763h38.879v178.845H179.487c-20.313,12.299-50.023,12.42-70.305,0H0V45.763h38.88V0
	c36.958,0,73.476,1.376,105.487,20.883C176.374,1.382,212.898,0,248.829,0V45.763z M39.514,61.315H19.439V205.17h96.03
	c18.004,13.342,39.824,13.208,57.863,0h94.935V61.315h-19.438v111.102c-40.513,0-69.012,0.741-104.462,24.624
	c-35.447-23.883-63.951-24.624-104.854-24.624V61.315z M58.319,18.859v134.916c26.061,0.608,52.958,4.066,77.759,15.65V37.058
	C112.326,23.138,84.4,19.481,58.252,18.859 M155.518,37.058v132.367c21.938-11.59,48.838-15.042,73.871-15.65V18.859
	c-25.044,0.623-52.988,4.279-75.651,18.199"/>
</svg>
