<?xml version="1.0" encoding="utf-8"?>
<!-- Generator: Adobe Illustrator 16.0.1, SVG Export Plug-In . SVG Version: 6.00 Build 0)  -->
<!DOCTYPE svg PUBLIC "-//W3C//DTD SVG 1.1//EN" "http://www.w3.org/Graphics/SVG/1.1/DTD/svg11.dtd">
<svg version="1.1" id="Layer_1" xmlns="http://www.w3.org/2000/svg" xmlns:xlink="http://www.w3.org/1999/xlink" x="0px" y="0px"
	 width="289.252px" height="332.601px" viewBox="0 0 289.252 332.601" enable-background="new 0 0 289.252 332.601"
	 xml:space="preserve">
<path d="M276.854,117.915h-19.668v68.792c0,4.501-3.004,8.216-7.08,8.513v83.174h21.43v31.504h17.717v22.704H0v-22.704h17.715
	v-31.504h21.431v-83.174c-4.076-0.297-7.261-4.012-7.261-8.513v-68.792H12.228L6.729,97.068L144.546,0l137.797,97.068
	L276.854,117.915L276.854,117.915z M256.124,309.896v-14.479H33.127v14.479H256.124L256.124,309.896z M121.512,278.393v-83.174
	c-4.074-0.297-7.26-4.012-7.26-8.513V164.49H92.461v22.216c0,4.501-3.184,8.216-7.26,8.513v83.174H121.512L121.512,278.393z
	 M136.925,195.219v83.174h15.412v-83.174H136.925L136.925,195.219z M167.749,195.219v83.174h36.133v-83.174
	c-3.906-0.297-7.092-4.012-7.092-8.513V164.49h-21.961v22.216C174.829,191.207,171.634,194.922,167.749,195.219L167.749,195.219z
	 M234.704,195.219h-15.412v83.174h15.412V195.219L234.704,195.219z M159.417,164.49h-29.583v13.703h29.583V164.49L159.417,164.49z
	 M241.774,164.49h-29.572v13.703h29.572V164.49L241.774,164.49z M77.061,164.49H47.297v13.703h29.764V164.49L77.061,164.49z
	 M69.97,195.219H54.558v83.174H69.97V195.219L69.97,195.219z M241.774,117.915H47.297v29.55h194.477V117.915L241.774,117.915z
	 M47.467,95.21h194.307l-97.229-68.292L47.467,95.21L47.467,95.21z"/>
</svg>
