<?xml version="1.0" encoding="utf-8"?>
<!-- Generator: Adobe Illustrator 16.0.1, SVG Export Plug-In . SVG Version: 6.00 Build 0)  -->
<!DOCTYPE svg PUBLIC "-//W3C//DTD SVG 1.1//EN" "http://www.w3.org/Graphics/SVG/1.1/DTD/svg11.dtd">
<svg version="1.1" id="Layer_1" xmlns="http://www.w3.org/2000/svg" xmlns:xlink="http://www.w3.org/1999/xlink" x="0px" y="0px"
	 width="281.963px" height="299.854px" viewBox="0 0 281.963 299.854" enable-background="new 0 0 281.963 299.854"
	 xml:space="preserve">
<path d="M190.969,0.004c14.978-0.012,26.195,10.72,26.253,26.102l0.031,8.858h53.959c5.938,0,10.751,4.813,10.751,10.744v243.403
	c0,5.931-4.812,10.743-10.751,10.743H10.747C4.813,299.854,0,295.042,0,289.111V45.708c0-5.931,4.813-10.744,10.747-10.744h53.96
	v-8.858C64.707,10.724,76.005-0.008,90.975,0c14.949,0.007,26.332,10.721,26.332,26.106v8.858h47.348v-8.858
	C164.654,10.769,176.043,0.004,190.969,0.004L190.969,0.004z M183.728,233.708c-7.123,0-12.898,5.768-12.898,12.891
	s5.775,12.89,12.898,12.89c7.122,0,12.897-5.767,12.897-12.89S190.85,233.708,183.728,233.708L183.728,233.708z M225.708,148.022
	c7.122,0,12.89,5.775,12.89,12.898c0,7.122-5.768,12.89-12.89,12.89c-7.123,0-12.898-5.768-12.898-12.89
	C212.81,153.797,218.585,148.022,225.708,148.022L225.708,148.022z M225.708,190.869c7.122,0,12.89,5.768,12.89,12.89
	c0,7.123-5.768,12.891-12.89,12.891c-7.123,0-12.898-5.768-12.898-12.891C212.81,196.636,218.585,190.869,225.708,190.869
	L225.708,190.869z M141.748,148.022c-7.123,0-12.892,5.775-12.892,12.898c0,7.122,5.769,12.89,12.892,12.89
	s12.897-5.768,12.897-12.89C154.646,153.797,148.871,148.022,141.748,148.022L141.748,148.022z M183.728,148.022
	c7.122,0,12.897,5.775,12.897,12.898c0,7.122-5.775,12.89-12.897,12.89c-7.123,0-12.898-5.768-12.898-12.89
	C170.829,153.797,176.604,148.022,183.728,148.022L183.728,148.022z M141.748,190.869c-7.123,0-12.892,5.768-12.892,12.89
	c0,7.123,5.769,12.891,12.892,12.891s12.897-5.768,12.897-12.891C154.646,196.636,148.871,190.869,141.748,190.869L141.748,190.869z
	 M183.728,190.869c7.122,0,12.897,5.768,12.897,12.89c0,7.123-5.775,12.891-12.897,12.891c-7.123,0-12.898-5.768-12.898-12.891
	C170.829,196.636,176.604,190.869,183.728,190.869L183.728,190.869z M99.771,190.869c7.123,0,12.897,5.768,12.897,12.89
	c0,7.123-5.774,12.891-12.897,12.891c-7.118,0-12.893-5.768-12.893-12.891C86.877,196.636,92.652,190.869,99.771,190.869
	L99.771,190.869z M57.795,190.869c7.123,0,12.893,5.768,12.893,12.89c0,7.123-5.771,12.891-12.893,12.891
	c-7.123,0-12.894-5.768-12.894-12.891C44.901,196.636,50.672,190.869,57.795,190.869L57.795,190.869z M141.748,233.708
	c-7.123,0-12.892,5.768-12.892,12.891s5.769,12.89,12.892,12.89s12.897-5.767,12.897-12.89S148.871,233.708,141.748,233.708
	L141.748,233.708z M99.771,233.708c7.123,0,12.897,5.768,12.897,12.891s-5.774,12.89-12.897,12.89
	c-7.118,0-12.893-5.767-12.893-12.89S92.652,233.708,99.771,233.708L99.771,233.708z M57.795,233.708
	c7.123,0,12.893,5.768,12.893,12.891s-5.771,12.89-12.893,12.89c-7.123,0-12.894-5.767-12.894-12.89S50.672,233.708,57.795,233.708
	L57.795,233.708z M64.707,56.455H21.49v52.083H260.47V56.455h-43.217v8.859c0,15.337-11.38,26.132-26.314,26.132
	c-14.926,0-26.284-10.788-26.284-26.132v-8.859h-47.348v8.859c0,15.374-11.465,26.087-26.386,26.102
	c-14.993,0.019-26.213-10.717-26.213-26.102V56.455L64.707,56.455z M190.969,16.055c-5.99,0-10.202,3.81-10.202,10.051v39.208
	c0,6.249,4.176,10.014,10.172,10.014c5.998,0,10.204-3.769,10.204-10.014l0.028-39.208
	C201.171,19.905,196.943,16.055,190.969,16.055L190.969,16.055z M101.193,65.313V26.106c0-6.179-4.261-10.051-10.218-10.051
	c-5.978,0-10.15,3.861-10.15,10.051v39.208c0,6.208,4.083,10.058,10.096,10.05C96.854,75.354,101.193,71.481,101.193,65.313
	L101.193,65.313z M21.49,130.031v148.337H260.47V130.031H21.49L21.49,130.031z"/>
</svg>
