<?xml version="1.0" encoding="utf-8"?>
<!-- Generator: Adobe Illustrator 16.0.1, SVG Export Plug-In . SVG Version: 6.00 Build 0)  -->
<!DOCTYPE svg PUBLIC "-//W3C//DTD SVG 1.1//EN" "http://www.w3.org/Graphics/SVG/1.1/DTD/svg11.dtd">
<svg version="1.1" id="Layer_1" xmlns="http://www.w3.org/2000/svg" xmlns:xlink="http://www.w3.org/1999/xlink" x="0px" y="0px"
	 width="279.959px" height="328.985px" viewBox="0 0 279.959 328.985" enable-background="new 0 0 279.959 328.985"
	 xml:space="preserve">
<g>
	<path d="M258.345,21.696H70.298v236.991h188.054L258.345,21.696L258.345,21.696z M48.608,70.298H21.696v236.998h188.017v-26.904
		H48.608V70.298L48.608,70.298z M231.401,280.392v48.594H0.008L0,48.602h48.608V0H279.95l0.009,280.392H231.401L231.401,280.392z"/>
	<g>
		<path d="M116.508,108.002c-0.317,0.231-0.639,0.396-1.043,0.396c-0.399,0-0.721-0.165-1.043-0.396L89.883,83.458
			c-0.561-0.567-0.561-1.516,0-2.084L99.987,71.27c0.565-0.561,1.521-0.561,2.085,0l13.393,13.475l30.721-30.792
			c0.553-0.568,1.519-0.568,2.078,0l10.104,10.104c0.568,0.553,0.568,1.517,0,2.078L116.508,108.002z"/>
	</g>
	<g>
		<path d="M116.508,170.012c-0.317,0.239-0.639,0.404-1.043,0.404c-0.399,0-0.721-0.165-1.043-0.404l-24.539-24.536
			c-0.561-0.568-0.561-1.524,0-2.085l10.104-10.104c0.565-0.561,1.521-0.561,2.085,0l13.393,13.475l30.721-30.798
			c0.553-0.562,1.519-0.562,2.078,0l10.104,10.104c0.568,0.56,0.568,1.525,0,2.085L116.508,170.012z"/>
	</g>
	<g>
		<path d="M116.508,234.323c-0.317,0.232-0.639,0.396-1.043,0.396c-0.399,0-0.721-0.164-1.043-0.396L89.883,209.78
			c-0.561-0.561-0.561-1.518,0-2.086l10.104-10.104c0.565-0.56,1.521-0.56,2.085,0l13.393,13.476l30.721-30.792
			c0.553-0.567,1.519-0.567,2.078,0l10.104,10.104c0.568,0.561,0.568,1.525,0,2.078L116.508,234.323z"/>
	</g>
	<polygon points="176.334,66.987 176.334,83.257 233.719,83.257 233.719,66.987 176.334,66.987 	"/>
	<polygon points="176.334,134.848 176.334,151.119 233.719,151.119 233.719,134.848 176.334,134.848 	"/>
	<polygon points="176.334,199.153 176.334,215.423 233.719,215.423 233.719,199.153 176.334,199.153 	"/>
</g>
</svg>
