<?xml version="1.0" encoding="utf-8"?>
<!-- Generator: Adobe Illustrator 16.0.1, SVG Export Plug-In . SVG Version: 6.00 Build 0)  -->
<!DOCTYPE svg PUBLIC "-//W3C//DTD SVG 1.1//EN" "http://www.w3.org/Graphics/SVG/1.1/DTD/svg11.dtd">
<svg version="1.1" id="Layer_1" xmlns="http://www.w3.org/2000/svg" xmlns:xlink="http://www.w3.org/1999/xlink" x="0px" y="0px"
	 width="213.897px" height="328.973px" viewBox="0 0 213.897 328.973" enable-background="new 0 0 213.897 328.973"
	 xml:space="preserve">
<path d="M83.651,134.564l48,27.714l57.609-99.781c3.816-6.614,4.582-14.189,2.746-21.053c-3.951-14.768-19.123-23.527-33.891-19.568
	c-6.863,1.842-13.041,6.296-16.855,12.907L83.651,134.564L83.651,134.564z M40.369,230.508l29.837,17.232l41.881-72.543
	l-29.845-17.229L40.369,230.508L40.369,230.508z M61.667,260.896L33.237,244.48c-4.573,12.891-6.589,31.775-6.011,43.248
	C37.42,282.498,52.794,271.293,61.667,260.896L61.667,260.896z M8.16,305.01c-3.366-23.148-1.481-58.102,10.129-78.199
	l45.797-79.325c-5.014-2.898-6.733-9.313-3.844-14.327l58.333-101.031H100.81l-39.476,68.379c3.756,2.166,5.05,6.949,2.882,10.707
	c-2.161,3.745-6.958,5.027-10.7,2.867c-2.276-1.314-4.552-2.633-6.827-3.94c-3.757-2.171-5.071-6.946-2.897-10.704l45.588-78.969
	c1.379-2.385,3.923-4.035,6.87-4.032l32.475,0.029c6.445-7.297,14.84-12.336,23.93-14.771c26.08-6.997,52.58,8.305,59.566,34.393
	c3.223,12.044,1.887,25.316-4.797,36.897L144.57,181.844c-2.891,5.014-9.305,6.732-14.318,3.844l-45.797,79.32
	c-11.589,20.068-40.951,39.223-62.668,47.863l-7.015,12.152c-5.173,8.957-18.792,1.096-13.619-7.861L8.16,305.01L8.16,305.01z"/>
</svg>
