<?xml version="1.0" encoding="utf-8"?>
<!-- Generator: Adobe Illustrator 16.0.1, SVG Export Plug-In . SVG Version: 6.00 Build 0)  -->
<!DOCTYPE svg PUBLIC "-//W3C//DTD SVG 1.1//EN" "http://www.w3.org/Graphics/SVG/1.1/DTD/svg11.dtd">
<svg version="1.1" id="Layer_1" xmlns="http://www.w3.org/2000/svg" xmlns:xlink="http://www.w3.org/1999/xlink" x="0px" y="0px"
	 width="12px" height="12.428px" viewBox="-0.365 -8.079 12 12.428" enable-background="new -0.365 -8.079 12 12.428"
	 xml:space="preserve">
<g>
	<path fill="#1E0576" d="M11.635-4.015c0,0.179-0.062,0.331-0.188,0.456L6.6,1.289L5.689,2.2C5.564,2.325,5.412,2.387,5.234,2.387
		S4.903,2.325,4.778,2.2l-0.91-0.911L1.443-1.135C1.318-1.26,1.256-1.412,1.256-1.59s0.062-0.331,0.188-0.456l0.911-0.911
		c0.125-0.125,0.276-0.188,0.455-0.188S3.14-3.082,3.265-2.957l1.969,1.976l4.393-4.4c0.125-0.125,0.277-0.188,0.455-0.188
		c0.179,0,0.331,0.063,0.456,0.188l0.91,0.911C11.573-4.345,11.635-4.193,11.635-4.015z"/>
</g>
</svg>
