<?xml version="1.0" encoding="utf-8"?>
<!-- Generator: Adobe Illustrator 16.0.1, SVG Export Plug-In . SVG Version: 6.00 Build 0)  -->
<!DOCTYPE svg PUBLIC "-//W3C//DTD SVG 1.1//EN" "http://www.w3.org/Graphics/SVG/1.1/DTD/svg11.dtd">
<svg version="1.1" id="Layer_1" xmlns="http://www.w3.org/2000/svg" xmlns:xlink="http://www.w3.org/1999/xlink" x="0px" y="0px"
	 width="50.333px" height="32.375px" viewBox="0 0 50.333 32.375" enable-background="new 0 0 50.333 32.375" xml:space="preserve">
<g id="_x36_DyV27.tif">
	
		<image overflow="visible" width="512" height="512" id="Layer_0_1_" xlink:href="828D99EEECB9679E.png"  transform="matrix(0.305 0 0 0.305 109.6445 -67.269)">
	</image>
</g>
<g id="HbiodU.tif">
	
		<image overflow="visible" width="512" height="512" id="Layer_0_2_" xlink:href="828D99EEECB9679B.png"  transform="matrix(1 0 0 1 62.561 175.6943)">
	</image>
</g>
<g opacity="0.5">
	<path d="M15.685,12.646c0.085-0.085,0.127-0.186,0.127-0.302c0-0.116-0.042-0.216-0.127-0.301l-1.111-1.111
		c-0.085-0.085-0.186-0.127-0.302-0.127s-0.217,0.042-0.302,0.127l-4.969,4.969c-0.084,0.084-0.127,0.185-0.127,0.301
		c0,0.116,0.043,0.216,0.127,0.301l4.969,4.969c0.085,0.085,0.186,0.127,0.302,0.127s0.217-0.042,0.302-0.127l1.111-1.112
		c0.085-0.084,0.127-0.185,0.127-0.301s-0.042-0.216-0.127-0.301l-2.199-2.199h3.487v-2.714h-3.486L15.685,12.646z"/>
	<path d="M41.059,15.901l-4.969-4.969c-0.085-0.085-0.186-0.127-0.302-0.127s-0.217,0.042-0.302,0.127l-1.111,1.112
		c-0.085,0.084-0.127,0.185-0.127,0.301s0.042,0.216,0.127,0.301l2.199,2.199h-3.487v2.714h3.486l-2.198,2.198
		c-0.085,0.085-0.127,0.186-0.127,0.302c0,0.116,0.042,0.216,0.127,0.301l1.111,1.111c0.085,0.085,0.186,0.127,0.302,0.127
		s0.217-0.042,0.302-0.127l4.969-4.969c0.084-0.084,0.127-0.185,0.127-0.301C41.186,16.086,41.143,15.986,41.059,15.901z"/>
	<path d="M25.03,8.933c-3.544,0-6.5,2.551-7.138,5.912c-0.083,0.44-0.132,0.894-0.132,1.358c0,0.464,0.048,0.917,0.131,1.356
		c0.638,3.362,3.594,5.913,7.138,5.913s6.5-2.551,7.138-5.913c0.083-0.44,0.132-0.893,0.132-1.357s-0.048-0.917-0.132-1.357
		C31.529,11.484,28.574,8.933,25.03,8.933z M25.03,21.472c-2.434,0-4.467-1.667-5.07-3.913c-0.117-0.436-0.199-0.885-0.199-1.356
		c0-0.472,0.083-0.922,0.2-1.358c0.604-2.246,2.637-3.912,5.07-3.912c2.434,0,4.467,1.667,5.07,3.912
		c0.117,0.436,0.2,0.885,0.2,1.357s-0.083,0.921-0.199,1.357C29.497,19.806,27.463,21.472,25.03,21.472z"/>
</g>
</svg>
