<?xml version="1.0" encoding="utf-8"?>
<!-- Generator: Adobe Illustrator 16.0.1, SVG Export Plug-In . SVG Version: 6.00 Build 0)  -->
<!DOCTYPE svg PUBLIC "-//W3C//DTD SVG 1.1//EN" "http://www.w3.org/Graphics/SVG/1.1/DTD/svg11.dtd">
<svg version="1.1" id="Layer_1" xmlns="http://www.w3.org/2000/svg" xmlns:xlink="http://www.w3.org/1999/xlink" x="0px" y="0px"
	 width="6.857px" height="10.286px" viewBox="0 0 6.857 10.286" enable-background="new 0 0 6.857 10.286" xml:space="preserve">
<g>
	<path fill="#D61E3E" d="M6.857,3.429c0,0.487-0.073,0.886-0.221,1.199L4.199,9.811c-0.072,0.147-0.178,0.263-0.318,0.348
		c-0.141,0.084-0.291,0.127-0.452,0.127s-0.312-0.042-0.452-0.127c-0.141-0.085-0.245-0.201-0.312-0.348L0.221,4.627
		C0.074,4.315,0,3.916,0,3.429c0-0.946,0.335-1.754,1.004-2.424C1.674,0.335,2.482,0,3.429,0c0.946,0,1.754,0.335,2.424,1.004
		C6.522,1.674,6.857,2.482,6.857,3.429z M4.641,4.641c0.335-0.334,0.502-0.739,0.502-1.212S4.976,2.551,4.641,2.217
		C4.306,1.882,3.902,1.714,3.429,1.714c-0.474,0-0.877,0.167-1.212,0.502C1.882,2.551,1.714,2.956,1.714,3.429
		s0.167,0.877,0.502,1.212c0.335,0.335,0.739,0.502,1.212,0.502C3.902,5.143,4.306,4.976,4.641,4.641z"/>
</g>
</svg>
